<svg height="512" viewBox="0 0 64 64" width="512" xmlns="http://www.w3.org/2000/svg"><g id="Mail"><g fill="#9bc9ff"><path d="m10 19.69-7 5.31 7 5.79z"/><path d="m10 30.79-7-5.79v36l21.75-18z"/><path d="m34 24h6v10h-6z"/><path d="m30 24v-4h-1-7v4h2z"/><path d="m34 24h6 2v-4h-7-1z"/><path d="m24 24h6v10h-6z"/><path d="m33.21 3.92a1.981 1.981 0 0 0 -2.42 0l-8.02 6.08h18.46z"/><path d="m54 30.79 7-5.79-7-5.31z"/><path d="m33.28 38.06a1.994 1.994 0 0 0 -2.56 0l-5.97 4.94-21.75 18h58l-21.75-18z"/><path d="m39.25 43 21.75 18v-36l-7 5.79z"/></g><path d="m61.594 24.217.01-.014-6.604-5.01v-9.193a1 1 0 0 0 -1-1h-12.433l-7.75-5.875a3 3 0 0 0 -3.631 0l-7.753 5.875h-12.433a1 1 0 0 0 -1 1v9.193l-6.6 5.007.01.014a.979.979 0 0 0 -.41.786v36a1 1 0 0 0 1 1h58a1 1 0 0 0 1-1v-36a.979.979 0 0 0 -.406-.783zm-56.984.817 4.39-3.334v6.961zm18.571 17.966-19.181 15.874v-31.749zm8.181-4.173a.992.992 0 0 1 1.281 0l25.58 21.173h-52.446zm9.457 4.173 19.181-15.875v31.749zm18.571-17.966-4.39 3.631v-6.965zm-27.99-20.32a.983.983 0 0 1 1.208 0l5.648 4.286h-12.512zm-20.4 6.286h42v19.32l-13.75 11.38-5.327-4.409a2.99 2.99 0 0 0 -3.841 0l-5.332 4.409-13.75-11.38z" fill="#1e81ce"/><path d="m40 35a1 1 0 0 0 1-1v-9h1a1 1 0 0 0 1-1v-4a1 1 0 0 0 -1-1h-3.556a3.959 3.959 0 0 0 .556-2 3.983 3.983 0 0 0 -7-2.618 3.979 3.979 0 0 0 -6.444 4.618h-3.556a1 1 0 0 0 -1 1v4a1 1 0 0 0 1 1h1v9a1 1 0 0 0 1 1zm-9-2v-12h2v12zm8 0h-4v-8h4zm2-10h-6v-2h6zm-6-8a2 2 0 0 1 0 4h-2v-2a2 2 0 0 1 2-2zm-8 2a2 2 0 0 1 4 0v2h-2a2 2 0 0 1 -2-2zm-4 4h6v2h-6zm2 4h4v8h-4z" fill="#1e81ce"/></g></svg>